<?xml version="1.0" encoding="UTF-8"?>
<svg width="200px" height="200px" viewBox="0 0 200 200" version="1.1" xmlns="http://www.w3.org/2000/svg">
    <defs>
        <linearGradient x1="0%" y1="0%" x2="100%" y2="100%" id="logoGradient">
            <stop stop-color="#0A84FF" offset="0%"></stop>
            <stop stop-color="#64AAFF" offset="100%"></stop>
        </linearGradient>
        <filter id="glow" x="-50%" y="-50%" width="200%" height="200%">
            <feGaussianBlur stdDeviation="5" result="blur"></feGaussianBlur>
            <feComposite in="SourceGraphic" in2="blur" operator="over"></feComposite>
        </filter>
    </defs>
    <g stroke="none" fill="none">
        <circle fill="rgba(40, 40, 45, 0.7)" cx="100" cy="100" r="90"></circle>
        <circle stroke="url(#logoGradient)" stroke-width="4" cx="100" cy="100" r="85"></circle>

        <!-- Math symbols -->
        <g fill="url(#logoGradient)" filter="url(#glow)" transform="translate(50, 50)">
            <!-- Plus sign -->
            <rect x="0" y="40" width="40" height="8" rx="4"></rect>
            <rect x="16" y="24" width="8" height="40" rx="4"></rect>

            <!-- Equals sign -->
            <rect x="60" y="34" width="40" height="8" rx="4"></rect>
            <rect x="60" y="54" width="40" height="8" rx="4"></rect>

            <!-- Division sign -->
            <rect x="0" y="90" width="40" height="8" rx="4"></rect>
            <circle cx="20" cy="75" r="6"></circle>
            <circle cx="20" cy="113" r="6"></circle>

            <!-- Multiplication sign -->
            <rect x="60" y="90" width="40" height="8" rx="4" transform="rotate(45, 80, 94)"></rect>
            <rect x="60" y="90" width="40" height="8" rx="4" transform="rotate(-45, 80, 94)"></rect>
        </g>

        <!-- Drill bit -->
        <path d="M140,50 L160,70 L160,150 L140,170 L120,150 L120,70 Z" fill="rgba(40, 40, 45, 0.9)" stroke="url(#logoGradient)" stroke-width="3"></path>
        <path d="M130,60 L150,80 L150,140 L130,160 L110,140 L110,80 Z" fill="rgba(60, 60, 65, 0.7)" stroke="url(#logoGradient)" stroke-width="2"></path>

        <!-- Drill bit details -->
        <rect x="125" y="90" width="20" height="4" rx="2" fill="url(#logoGradient)"></rect>
        <rect x="125" y="100" width="20" height="4" rx="2" fill="url(#logoGradient)"></rect>
        <rect x="125" y="110" width="20" height="4" rx="2" fill="url(#logoGradient)"></rect>
        <rect x="125" y="120" width="20" height="4" rx="2" fill="url(#logoGradient)"></rect>
    </g>
</svg>
